<mxfile host="app.diagrams.net" modified="2023-09-23T18:43:20.524Z" agent="Mozilla/5.0 (Macintosh; Intel Mac OS X 10.15; rv:109.0) Gecko/20100101 Firefox/117.0" version="21.8.1" etag="grWKG1dOktc8fcxsbetF" type="github">
  <diagram name="Page-1" id="TvMvOZ9mV_910rXKRIYk">
    <mxGraphModel>
      <root>
        <mxCell id="0" />
        <mxCell id="1" parent="0" />
      </root>
    </mxGraphModel>
  </diagram>
</mxfile>
